<svg version="1.1" id="Layer_1" xmlns="http://www.w3.org/2000/svg" xmlns:xlink="http://www.w3.org/1999/xlink" x="0px" y="0px"
	 viewBox="0 0 138 134.6" style="enable-background:new 0 0 138 134.6;" xml:space="preserve">
<style type="text/css">
	.st0{fill:#635D75;}
	.st1{fill:#95A3B3;}
	.st2{fill:#19323C;}
	.st3{font-family:'Montserrat-ExtraBold';}
	.st4{font-size:15px;}
	.st5{font-family:'Montserrat-Regular';}
</style>
<path class="st0" d="M137,117.1L69.4,0.2c1.4,5.6,3.2,14.2,4.8,24.7c5.7,39.4,8.6,59.1-2.6,72.4c0,0-14.4,17.3-69,19.8l0,0l-0.9,0.1
	H137z"/>
<path class="st1" d="M69.5,0.1l-67.6,117c4.2-4,10.7-9.9,19-16.5c31.2-24.6,46.9-36.9,64-34c0,0,22.1,3.8,51.6,49.9l0,0
	c0.1,0.1,0.5,0.7,0.5,0.7l-0.1-0.1L69.5,0.1z"/>
<path class="st2" d="M1.8,117.2h135.1c-5.6-1.6-13.9-4.3-23.8-8.2c-37-14.8-55.4-22.1-61.4-38.4c0,0-7.8-21.1,17.4-69.7l0,0
	c0.1-0.1,0.4-0.8,0.4-0.8l-0.1,0.1L1.8,117.2z"/>
<text transform="matrix(1 0 0 1 0 130.55)" class="st2 st3 st4">MULL </text>
<text transform="matrix(1 0 0 1 48.76 130.55)" class="st2 st5 st4">SO</text>
<text transform="matrix(1 0 0 1 70.57 130.55)" class="st2 st5 st4">L</text>
<text transform="matrix(1 0 0 1 79.21 130.55)" class="st2 st5 st4">U</text>
<text transform="matrix(1 0 0 1 90.88 130.55)" class="st2 st5 st4">TIONS</text>
</svg>
